<svg xmlns="http://www.w3.org/2000/svg" width="32" height="32" viewBox="0 0 32 32">
  <g fill="none" fill-rule="evenodd">
    <rect width="32" height="32"/>
    <polygon fill="#BEC8D2" points="21 3.006 22 3.006 27 8 27 9 21 9"/>
    <path stroke="#898FA0" d="M27.5,8.20710678 L21.7928932,2.5 L4.99339768,2.5 C4.72136301,2.5 4.5,2.7220332 4.5,2.99653482 L4.5,29.0034652 C4.5,29.2808866 4.72100091,29.5 5.00069463,29.5 L26.9993054,29.5 C27.2759552,29.5 27.5,29.2754733 27.5,28.9975383 L27.5,8.20710678 Z"/>
    <rect width="10" height="5" x="8" y="9" fill="#BEC8D2" opacity=".6" rx="1"/>
    <polygon fill="#BEC8D2" points="8 17 24 17 24 19 8 19" opacity=".8"/>
    <polygon fill="#BEC8D2" points="8 22 24 22 24 24 8 24" opacity=".8"/>
  </g>
</svg>
