<?xml version="1.0" standalone="no"?>
<!DOCTYPE svg PUBLIC "-//W3C//DTD SVG 20010904//EN"
 "http://www.w3.org/TR/2001/REC-SVG-20010904/DTD/svg10.dtd">
<svg version="1.0" xmlns="http://www.w3.org/2000/svg"
 width="260.000000pt" height="260.000000pt" viewBox="0 0 260.000000 260.000000"
 preserveAspectRatio="xMidYMid meet">
<metadata>
Created by potrace 1.11, written by Peter Selinger 2001-2013
</metadata>
<g transform="translate(0.000000,260.000000) scale(0.100000,-0.100000)"
fill="#000000" stroke="none">
<path d="M1178 2500 c-57 -56 -180 -178 -275 -272 l-172 -171 1 -148 c1 -106
4 -146 12 -141 6 4 132 126 279 272 148 146 271 266 275 267 4 2 118 -106 254
-240 135 -133 262 -258 282 -276 l36 -35 0 150 0 151 -226 224 c-124 123 -248
245 -274 272 -26 26 -57 47 -69 47 -13 0 -60 -38 -123 -100z"/>
<path d="M1192 2022 c-61 -59 -250 -243 -420 -410 l-309 -303 0 -145 0 -145
21 18 c11 10 48 45 81 78 575 563 727 710 735 710 5 0 136 -124 290 -275 506
-494 543 -530 547 -530 1 0 3 64 3 143 l0 143 -112 111 c-62 62 -185 182 -273
268 -88 86 -226 221 -307 300 l-146 144 -110 -107z"/>
<path d="M1100 1459 c-107 -105 -320 -313 -474 -462 -153 -150 -314 -307 -357
-349 l-79 -77 0 -145 c0 -80 3 -146 6 -146 4 0 21 15 39 33 28 28 377 368 675
657 58 56 169 165 248 243 78 77 145 137 149 133 10 -10 603 -589 703 -686 48
-47 155 -151 238 -232 83 -82 154 -148 157 -148 3 0 5 66 5 146 l0 147 -83 81
c-46 44 -207 201 -358 348 -151 147 -362 353 -469 457 -107 105 -197 191 -200
191 -3 0 -93 -86 -200 -191z"/>
<path d="M974 881 c-61 -58 -114 -111 -117 -117 -4 -8 37 -12 146 -12 84 0
159 0 167 -1 13 -1 15 -50 15 -373 l0 -373 116 -3 116 -3 1 353 c0 194 1 364
1 378 l1 25 157 -1 c87 -1 161 0 165 2 3 2 -45 55 -109 116 l-114 113 -217 0
-217 1 -111 -105z"/>
</g>
</svg>
